# This file uses centimeters as units for non-parametric coordinates.

mtllib heart.mtl
g default
v 0.562688 -0.250000 0.006301
v 0.562688 0.250000 0.006301
v 0.562688 0.250000 -0.529210
v 0.562688 -0.250000 -0.529210
v 0.000000 0.250000 -0.456902
v 0.000000 -0.250000 -0.456902
v -0.000000 -0.250000 0.500000
v -0.000000 0.250000 0.500000
v 0.426311 0.250000 0.229039
v 0.426311 0.250000 -0.645585
v 0.426311 -0.250000 -0.645585
v 0.426311 -0.250000 0.229039
v 0.000000 0.250000 0.000000
v 0.426311 0.250000 -0.150261
v 0.627511 0.250000 -0.312543
v 0.627511 -0.250000 -0.312543
v 0.426311 -0.250000 -0.150261
v 0.000000 -0.250000 0.000000
v 0.109328 0.250000 -0.020278
v 0.109328 0.250000 0.458582
v 0.109328 -0.250000 0.458582
v 0.109328 -0.250000 -0.020278
v 0.109328 -0.250000 -0.612003
v 0.109328 0.250000 -0.612003
v 0.263901 0.250000 -0.073516
v 0.263901 0.250000 0.390826
v 0.263901 -0.250000 0.390826
v 0.263901 -0.250000 -0.073516
v 0.263901 -0.250000 -0.664056
v 0.263901 0.250000 -0.664056
v -0.562688 -0.250000 0.006301
v -0.562688 0.250000 0.006301
v -0.562688 0.250000 -0.529210
v -0.562688 -0.250000 -0.529210
v 0.000000 0.250000 -0.456902
v -0.426311 0.250000 0.229039
v -0.426311 0.250000 -0.645585
v -0.426311 -0.250000 -0.645585
v -0.426311 -0.250000 0.229039
v 0.000000 0.250000 0.000000
v -0.426311 0.250000 -0.150261
v -0.627511 0.250000 -0.312543
v -0.627511 -0.250000 -0.312543
v -0.426311 -0.250000 -0.150261
v 0.000000 -0.250000 0.000000
v -0.109328 0.250000 -0.020278
v -0.109328 0.250000 0.458582
v -0.109328 -0.250000 0.458582
v -0.109328 -0.250000 -0.020278
v -0.109328 -0.250000 -0.612003
v -0.109328 0.250000 -0.612003
v -0.263901 0.250000 -0.073516
v -0.263901 0.250000 0.390826
v -0.263901 -0.250000 0.390826
v -0.263901 -0.250000 -0.073516
v -0.263901 -0.250000 -0.664056
v -0.263901 0.250000 -0.664056
vt 0.375000 0.000000
vt 0.375000 0.250000
vt 0.375000 0.500000
vt 0.375000 0.750000
vt 0.375000 1.000000
vt 0.125000 0.000000
vt 0.125000 0.250000
vt 0.500000 0.500000
vt 0.500000 0.750000
vt 0.500000 0.000000
vt 0.500000 1.000000
vt 0.500000 0.250000
vt 0.437500 0.250000
vt 0.437500 0.500000
vt 0.437500 0.750000
vt 0.437500 0.000000
vt 0.437500 1.000000
vt 0.500000 0.375000
vt 0.437500 0.375000
vt 0.250000 0.250000
vt 0.375000 0.375000
vt 0.250000 0.000000
vt 0.375000 0.875000
vt 0.437500 0.875000
vt 0.500000 0.875000
vt 0.468750 0.375000
vt 0.468750 0.250000
vt 0.468750 0.000000
vt 0.468750 1.000000
vt 0.468750 0.875000
vt 0.468750 0.750000
vt 0.468750 0.500000
vt 0.453125 0.375000
vt 0.453125 0.250000
vt 0.453125 0.000000
vt 0.453125 1.000000
vt 0.453125 0.875000
vt 0.453125 0.750000
vt 0.453125 0.500000
vt 0.375000 0.000000
vt 0.437500 0.000000
vt 0.437500 0.250000
vt 0.375000 0.250000
vt 0.437500 0.375000
vt 0.375000 0.375000
vt 0.375000 0.500000
vt 0.437500 0.500000
vt 0.437500 0.750000
vt 0.375000 0.750000
vt 0.375000 0.875000
vt 0.437500 0.875000
vt 0.437500 1.000000
vt 0.375000 1.000000
vt 0.250000 0.000000
vt 0.250000 0.250000
vt 0.468750 0.250000
vt 0.500000 0.250000
vt 0.500000 0.375000
vt 0.468750 0.375000
vt 0.468750 0.750000
vt 0.468750 0.500000
vt 0.500000 0.500000
vt 0.500000 0.750000
vt 0.468750 1.000000
vt 0.468750 0.875000
vt 0.500000 0.875000
vt 0.500000 1.000000
vt 0.468750 0.000000
vt 0.500000 0.000000
vt 0.125000 0.000000
vt 0.125000 0.250000
vt 0.453125 0.250000
vt 0.453125 0.375000
vt 0.453125 0.000000
vt 0.453125 1.000000
vt 0.453125 0.875000
vt 0.453125 0.750000
vt 0.453125 0.500000
vn 0.852838 0.000000 0.522175
vn 0.852838 0.000000 0.522175
vn 0.789639 0.000000 0.613572
vn 0.789639 0.000000 0.613572
vn 0.000000 1.000000 0.000000
vn 0.000000 1.000000 0.000000
vn 0.000000 1.000000 0.000000
vn 0.000000 1.000000 0.000000
vn 0.649118 0.000000 -0.760688
vn 0.649118 0.000000 -0.760688
vn 0.411359 0.000000 -0.911473
vn 0.411359 0.000000 -0.911473
vn 0.000000 -1.000000 0.000000
vn 0.000000 -1.000000 0.000000
vn 0.000000 -1.000000 0.000000
vn -0.000000 -1.000000 -0.000000
vn 1.000000 0.000000 0.000000
vn 1.000000 0.000000 0.000000
vn 0.979953 0.000000 0.199230
vn 0.979953 0.000000 0.199230
vn 0.000000 1.000000 0.000000
vn 0.000000 1.000000 0.000000
vn 0.000000 1.000000 0.000000
vn 0.000000 1.000000 0.000000
vn -0.617459 0.000000 -0.786603
vn -0.817353 0.000000 -0.576137
vn -0.817353 0.000000 -0.576137
vn -0.617459 0.000000 -0.786603
vn 0.000000 -1.000000 0.000000
vn 0.000000 -1.000000 0.000000
vn 0.000000 -1.000000 0.000000
vn 0.000000 -1.000000 -0.000000
vn 0.382271 -0.000000 0.924050
vn 0.354271 -0.000000 0.935143
vn 0.354271 -0.000000 0.935143
vn 0.382271 -0.000000 0.924050
vn 0.000000 1.000000 0.000000
vn 0.000000 1.000000 0.000000
vn 0.000000 1.000000 0.000000
vn 0.000000 1.000000 0.000000
vn 0.958042 0.000000 -0.286629
vn 0.958042 0.000000 -0.286629
vn 0.000000 -1.000000 0.000000
vn -0.000000 -1.000000 -0.000000
vn 0.000000 -1.000000 0.000000
vn 0.000000 -1.000000 -0.000000
vn 0.000000 1.000000 0.000000
vn 0.000000 1.000000 0.000000
vn 0.586517 0.000000 0.809937
vn 0.586517 0.000000 0.809937
vn 0.000000 -1.000000 0.000000
vn 0.000000 -1.000000 -0.000000
vn -0.000000 -1.000000 -0.000000
vn -0.105353 0.000000 -0.994435
vn -0.105353 0.000000 -0.994435
vn 0.000000 1.000000 0.000000
vn -0.852838 0.000000 0.522175
vn -0.789639 0.000000 0.613572
vn -0.789639 0.000000 0.613572
vn -0.852838 0.000000 0.522175
vn 0.000000 1.000000 0.000000
vn 0.000000 1.000000 0.000000
vn 0.000000 1.000000 0.000000
vn 0.000000 1.000000 0.000000
vn -0.649118 0.000000 -0.760688
vn -0.411359 0.000000 -0.911473
vn -0.411359 0.000000 -0.911473
vn -0.649118 0.000000 -0.760688
vn 0.000000 -1.000000 0.000000
vn 0.000000 -1.000000 0.000000
vn 0.000000 -1.000000 0.000000
vn 0.000000 -1.000000 0.000000
vn -1.000000 0.000000 0.000000
vn -0.979953 0.000000 0.199230
vn -0.979953 0.000000 0.199230
vn -1.000000 0.000000 0.000000
vn 0.000000 1.000000 0.000000
vn 0.000000 1.000000 0.000000
vn 0.000000 1.000000 0.000000
vn 0.000000 1.000000 0.000000
vn 0.617459 0.000000 -0.786603
vn 0.617459 0.000000 -0.786603
vn 0.817353 0.000000 -0.576137
vn 0.817353 0.000000 -0.576137
vn -0.000000 -1.000000 0.000000
vn -0.000000 -1.000000 0.000000
vn -0.000000 -1.000000 0.000000
vn -0.000000 -1.000000 0.000000
vn -0.382271 -0.000000 0.924050
vn -0.382271 -0.000000 0.924050
vn -0.354271 -0.000000 0.935143
vn -0.354271 -0.000000 0.935143
vn 0.000000 1.000000 0.000000
vn 0.000000 1.000000 0.000000
vn 0.000000 1.000000 0.000000
vn 0.000000 1.000000 0.000000
vn -0.958042 0.000000 -0.286629
vn -0.958042 0.000000 -0.286629
vn 0.000000 -1.000000 0.000000
vn 0.000000 -1.000000 0.000000
vn -0.000000 -1.000000 0.000000
vn -0.000000 -1.000000 0.000000
vn 0.000000 1.000000 0.000000
vn 0.000000 1.000000 0.000000
vn -0.586517 0.000000 0.809937
vn -0.586517 0.000000 0.809937
vn 0.000000 -1.000000 0.000000
vn 0.000000 -1.000000 0.000000
vn 0.000000 -1.000000 0.000000
vn 0.105353 0.000000 -0.994435
vn 0.105353 0.000000 -0.994435
vn 0.000000 1.000000 0.000000
s 1
g pCube3
usemtl lambert2SG
f 1/1/1 2/2/2 9/13/3 12/16/4
s 2
f 2/2/5 15/21/6 14/19/7 9/13/8
s 3
f 3/3/9 4/4/10 11/15/11 10/14/12
s 4
f 16/23/13 1/5/14 12/17/15 17/24/16
s 5
f 16/22/17 15/20/18 2/2/19 1/1/20
s 2
f 20/27/21 19/26/22 13/18/23 8/12/24
s 3
f 23/31/25 6/9/26 5/8/27 24/32/28
s 4
f 21/29/29 7/11/30 18/25/31 22/30/32
s 1
f 20/27/33 8/12/34 7/10/35 21/28/36
s 2
f 24/32/37 5/8/38 13/18/23 19/26/22
f 15/21/6 3/3/39 10/14/40 14/19/7
s 5
f 4/6/41 3/7/42 15/20/18 16/22/17
s 4
f 4/4/43 16/23/13 17/24/16 11/15/44
f 18/25/31 6/9/45 23/31/46 22/30/32
s 2
f 26/34/47 25/33/48 19/26/22 20/27/21
s 1
f 26/34/49 20/27/33 21/28/36 27/35/50
s 4
f 27/36/51 21/29/29 22/30/32 28/37/52
f 23/31/46 29/38/53 28/37/52 22/30/32
s 3
f 29/38/54 23/31/25 24/32/28 30/39/55
s 2
f 30/39/56 24/32/37 19/26/22 25/33/48
f 9/13/8 14/19/7 25/33/48 26/34/47
s 1
f 9/13/3 26/34/49 27/35/50 12/16/4
s 4
f 12/17/15 27/36/51 28/37/52 17/24/16
f 29/38/53 11/15/44 17/24/16 28/37/52
s 3
f 11/15/11 29/38/54 30/39/55 10/14/12
s 2
f 14/19/7 10/14/40 30/39/56 25/33/48
s 10
f 31/40/57 39/41/58 36/42/59 32/43/60
s 11
f 32/43/61 36/42/62 41/44/63 42/45/64
s 12
f 33/46/65 37/47/66 38/48/67 34/49/68
s 13
f 43/50/69 44/51/70 39/52/71 31/53/72
s 14
f 43/54/73 31/40/74 32/43/75 42/55/76
s 11
f 47/56/77 8/57/78 40/58/79 46/59/80
s 12
f 50/60/81 51/61/82 35/62/83 6/63/84
s 13
f 48/64/85 49/65/86 45/66/87 7/67/88
s 10
f 47/56/89 48/68/90 7/69/91 8/57/92
s 11
f 51/61/93 46/59/80 40/58/79 35/62/94
f 42/45/64 41/44/63 37/47/95 33/46/96
s 14
f 34/70/97 43/54/73 42/55/76 33/71/98
s 13
f 34/49/99 38/48/100 44/51/70 43/50/69
f 45/66/87 49/65/86 50/60/101 6/63/102
s 11
f 53/72/103 47/56/77 46/59/80 52/73/104
s 10
f 53/72/105 54/74/106 48/68/90 47/56/89
s 13
f 54/75/107 55/76/108 49/65/86 48/64/85
f 50/60/101 49/65/86 55/76/108 56/77/109
s 12
f 56/77/110 57/78/111 51/61/82 50/60/81
s 11
f 57/78/112 52/73/104 46/59/80 51/61/93
f 36/42/62 53/72/103 52/73/104 41/44/63
s 10
f 36/42/59 39/41/58 54/74/106 53/72/105
s 13
f 39/52/71 44/51/70 55/76/108 54/75/107
f 56/77/109 55/76/108 44/51/70 38/48/100
s 12
f 38/48/67 37/47/66 57/78/111 56/77/110
s 11
f 41/44/63 52/73/104 57/78/112 37/47/95
